#N canvas 243 83 534 541 10;
#X obj 99 484 s pd-SLIME-senders;
#N canvas 507 54 238 390 SLIME-senders 0;
#X obj 20 30 udpSLIME shrpi.slime.test;
#X obj 20 60 udpSLIME sfmac.slime.test;
#X obj 20 90 udpSLIME sfrpi.slime.test;
#X obj 20 120 udpSLIME jblap.slime.test;
#X obj 20 150 udpSLIME shnet.slime.test;
#X obj 20 180 udpSLIME jbrpi.slime.test;
#X restore 111 504 pd SLIME-senders;
#X obj 99 365 cyclone/coll;
#C restore;
#X msg 150 419 dump;
#X obj 99 442 pack s 0;
#X obj 150 396 t b b;
#X msg 188 420 clear;
#X msg 102 463 obj 20 \$2 udpSLIME \$1;
#X obj 107 417 * 30;
#X obj 215 345 s udpSLIME.connect;
#N canvas 196 270 655 321 without.txt 0;
#X obj 34 275 outlet;
#X obj 151 153 bng 15 250 50 0 empty empty typical-ip-at-casa-freeman
17 7 0 10 -262144 -1 -1;
#X obj 152 268 outlet;
#X msg 181 204 clear \, 1 192.168.0.5 \, 2 192.168.0.6;
#X obj 152 176 t b b;
#X obj 93 23 bng 15 250 50 0 empty empty typical-ip-SLIME-dec2012 17
7 0 10 -262144 -1 -1;
#X obj 94 46 t b b;
#X msg 123 74 clear \, 1 shrpi.slime.test \, 2 sfmac.slime.test \,
3 sfrpi.slime.test \, 4 jblap.slime.test \, 5 shnet.slime.test \, 6
jbrpi.slime.test;
#X connect 1 0 4 0;
#X connect 3 0 0 0;
#X connect 4 0 2 0;
#X connect 4 1 3 0;
#X connect 5 0 6 0;
#X connect 6 0 2 0;
#X connect 6 1 7 0;
#X connect 7 0 0 0;
#X restore 100 302 pd without.txt;
#X obj 305 477 osc/packOSC;
#X obj 305 498 s toSLIME;
#X msg 11 251 read dnsnames-collformat.txt;
#X obj 22 98 osc/unpackOSC;
#X obj 22 134 s fromSLIME;
#X obj 22 71 iemnet/udpreceive 10000;
#X text 9 222 either list of ip addresses for coll from text file:
;
#X text 86 282 or for listing other ip address into the coll:;
#X text 9 43 **** In from SLIME network ****;
#N canvas 490 426 245 206 test_out 0;
#X obj 33 29 tgl 15 0 empty empty empty 17 7 0 10 -262144 -1 -1 0 1
;
#X msg 36 129 /slime/test/counter \$1;
#X floatatom 83 21 5 0 0 0 - - -;
#X obj 33 53 metro 345;
#X obj 38 151 osc/packOSC;
#X obj 38 172 s toSLIME;
#X floatatom 54 108 5 0 0 0 - - -;
#X obj 34 81 cyclone/counter 1 4;
#X connect 0 0 3 0;
#X connect 1 0 4 0;
#X connect 2 0 3 1;
#X connect 3 0 7 0;
#X connect 4 0 5 0;
#X connect 7 0 1 0;
#X connect 7 0 6 0;
#X restore 419 486 pd test_out;
#N canvas 544 214 270 266 test_in_print 0;
#X obj 37 107 route /slime/test/counter;
#X obj 26 34 r fromSLIME;
#X floatatom 36 141 5 0 0 0 - - -;
#X connect 0 0 2 0;
#X connect 1 0 0 0;
#X restore 213 97 pd test_in_print;
#X text 8 193 **** Out to SLIME network ****;
#N canvas 238 123 450 300 SLIME.udp.io.notes 0;
#X text 14 13 built in Pd-0.43.3-extended-20121101 on OSX;
#X restore 382 15 pd SLIME.udp.io.notes;
#X obj 117 130 spigot;
#X obj 151 108 tgl 15 0 empty empty empty 17 7 0 10 -262144 -1 -1 0
1;
#X obj 117 154 print fromSLIME;
#X text 220 483;
#X text 187 397 triggered by txt file read complete;
#X text 245 418 !!! click clear before saving !!!;
#X text 214 361 send connect bang when dump complete;
#X text 268 456 (to send messages use:);
#X connect 2 0 4 0;
#X connect 2 1 8 0;
#X connect 2 2 5 0;
#X connect 2 3 9 0;
#X connect 3 0 2 0;
#X connect 4 0 7 0;
#X connect 5 0 3 0;
#X connect 5 1 6 0;
#X connect 6 0 0 0;
#X connect 7 0 0 0;
#X connect 8 0 4 1;
#X connect 10 0 2 0;
#X connect 10 1 5 0;
#X connect 11 0 12 0;
#X connect 13 0 2 0;
#X connect 14 0 15 0;
#X connect 14 0 24 0;
#X connect 16 0 14 0;
#X connect 24 0 26 0;
#X connect 25 0 24 1;
