#N canvas 302 22 461 646 10;
#X obj 113 511 s pd-SLIME-senders;
#N canvas 507 54 238 390 SLIME-senders 0;
#X obj 20 30 udpSLIME shrpi.slime.test;
#X obj 20 60 udpSLIME sfmac.slime.test;
#X obj 20 90 udpSLIME sfrpi.slime.test;
#X obj 20 120 udpSLIME jblap.slime.test;
#X obj 20 150 udpSLIME shnet.slime.test;
#X obj 20 180 udpSLIME jbrpi.slime.test;
#X restore 269 510 pd SLIME-senders;
#X obj 113 362 cyclone/coll;
#C restore;
#X msg 183 431 dump;
#X obj 113 454 pack s 0;
#X obj 189 397 t b b;
#X msg 234 432 clear;
#X msg 113 483 obj 20 \$2 udpSLIME \$1;
#X obj 124 417 * 30;
#X obj 241 398 s udpSLIME.connect;
#N canvas 196 270 655 321 without.txt 0;
#X obj 34 275 outlet;
#X obj 151 153 bng 15 250 50 0 empty empty typical-ip-at-casa-freeman
17 7 0 10 -262144 -1 -1;
#X obj 152 268 outlet;
#X msg 181 204 clear \, 1 192.168.0.5 \, 2 192.168.0.6;
#X obj 152 176 t b b;
#X obj 93 23 bng 15 250 50 0 empty empty typical-ip-SLIME-dec2012 17
7 0 10 -262144 -1 -1;
#X obj 94 46 t b b;
#X msg 123 74 clear \, 1 shrpi.slime.test \, 2 sfmac.slime.test \,
3 sfrpi.slime.test \, 4 jblap.slime.test \, 5 shnet.slime.test \, 6
jbrpi.slime.test;
#X connect 1 0 4 0;
#X connect 3 0 0 0;
#X connect 4 0 2 0;
#X connect 4 1 3 0;
#X connect 5 0 6 0;
#X connect 6 0 2 0;
#X connect 6 1 7 0;
#X connect 7 0 0 0;
#X restore 194 326 pd without.txt;
#X obj 169 594 osc/packOSC;
#X obj 169 615 s toSLIME;
#X text 26 564 to send messages use both [packOSC] and [s toSLIME]
;
#X msg 11 251 read dnsnames-collformat.txt;
#X obj 22 98 osc/unpackOSC;
#X obj 22 134 s fromSLIME;
#X obj 22 71 iemnet/udpreceive 10000;
#X text 49 17;
#X text 235 510 -->;
#X text 9 222 either list of ip addresses for coll from text file:
;
#X text 84 296 or for listing other ip address into the coll:;
#X text 9 43 **** In from SLIME network ****;
#N canvas 490 426 245 206 test_out 0;
#X obj 33 29 tgl 15 0 empty empty empty 17 7 0 10 -262144 -1 -1 0 1
;
#X obj 34 81 counter 1 4;
#X msg 36 129 /slime/test/counter \$1;
#X floatatom 83 21 5 0 0 0 - - -;
#X obj 33 53 metro 345;
#X obj 38 151 osc/packOSC;
#X obj 38 172 s toSLIME;
#X floatatom 54 108 5 0 0 0 - - -;
#X connect 0 0 4 0;
#X connect 1 0 2 0;
#X connect 1 0 7 0;
#X connect 2 0 5 0;
#X connect 3 0 4 1;
#X connect 4 0 1 0;
#X connect 5 0 6 0;
#X restore 284 605 pd test_out;
#N canvas 544 214 270 266 test_in_print 0;
#X obj 37 107 route /slime/test/counter;
#X obj 26 34 r fromSLIME;
#X floatatom 36 141 5 0 0 0 - - -;
#X connect 0 0 2 0;
#X connect 1 0 0 0;
#X restore 213 97 pd test_in_print;
#X text 8 193 **** Out to SLIME network ****;
#X text 35 17;
#N canvas 238 123 450 300 SLIME.udp.io.notes 0;
#X text 14 13 built in Pd-0.43.3-extended-20121101 on OSX;
#X text 111 183;
#X restore 285 10 pd SLIME.udp.io.notes;
#X obj 117 130 spigot;
#X obj 151 108 tgl 15 0 empty empty empty 17 7 0 10 -262144 -1 -1 0
1;
#X obj 117 154 print fromSLIME;
#X connect 2 0 4 0;
#X connect 2 1 8 0;
#X connect 2 2 5 0;
#X connect 2 3 9 0;
#X connect 3 0 2 0;
#X connect 4 0 7 0;
#X connect 5 0 3 0;
#X connect 5 1 6 0;
#X connect 6 0 0 0;
#X connect 7 0 0 0;
#X connect 8 0 4 1;
#X connect 10 0 2 0;
#X connect 10 1 5 0;
#X connect 11 0 12 0;
#X connect 14 0 2 0;
#X connect 15 0 16 0;
#X connect 15 0 28 0;
#X connect 17 0 15 0;
#X connect 28 0 30 0;
#X connect 29 0 28 1;
