#N canvas 8 54 457 476 10;
#X obj 188 8 loadbang;
#X obj 54 234 iemnet/udpsend;
#X obj 16 79 r toSLIME;
#X obj 276 429 print udpslime;
#X obj 207 121 symbol \$1;
#X obj 94 124 symbol connect;
#X obj 105 181 route list;
#X obj 102 153 pack s s 10000;
#X obj 114 91 t b b;
#X obj 109 318 symbol connected;
#X obj 80 263 sel 1;
#X obj 61 350 pack s s;
#X obj 32 323 symbol \$1;
#X obj 61 375 route list;
#X obj 80 290 t b b;
#X obj 305 249 pack s s;
#X obj 305 274 route list;
#X obj 292 185 symbol \$1;
#X obj 353 217 symbol ...;
#X obj 199 36 t b b;
#X obj 344 148 t b b;
#X obj 254 10 r udpSLIME.connect;
#X connect 0 0 19 0;
#X connect 1 0 10 0;
#X connect 2 0 1 0;
#X connect 4 0 7 1;
#X connect 5 0 7 0;
#X connect 6 0 1 0;
#X connect 7 0 6 0;
#X connect 8 0 5 0;
#X connect 8 1 4 0;
#X connect 9 0 11 1;
#X connect 10 0 14 0;
#X connect 11 0 13 0;
#X connect 12 0 11 0;
#X connect 13 0 3 0;
#X connect 14 0 12 0;
#X connect 14 1 9 0;
#X connect 15 0 16 0;
#X connect 16 0 3 0;
#X connect 17 0 15 0;
#X connect 18 0 15 1;
#X connect 19 0 8 0;
#X connect 19 1 20 0;
#X connect 20 0 17 0;
#X connect 20 1 18 0;
#X connect 21 0 19 0;
